<?xml version="1.0" standalone="no"?>
<!DOCTYPE svg PUBLIC "-//W3C//DTD SVG 20010904//EN"
 "http://www.w3.org/TR/2001/REC-SVG-20010904/DTD/svg10.dtd">
<svg version="1.0" xmlns="http://www.w3.org/2000/svg"
 width="96.000000pt" height="96.000000pt" viewBox="0 0 96.000000 96.000000"
 preserveAspectRatio="xMidYMid meet">

<g transform="translate(0.000000,96.000000) scale(0.100000,-0.100000)"
fill="current" stroke="none">
<path d="M300 781 l-175 -78 -3 -52 -3 -51 40 0 41 0 0 -160 0 -160 40 0 40 0
0 160 0 160 40 0 40 0 0 -160 0 -160 40 0 40 0 0 160 0 160 40 0 40 0 0 -160
0 -160 40 0 40 0 0 160 0 160 40 0 40 0 0 -160 0 -160 40 0 40 0 0 160 0 160
41 0 40 0 -3 51 -3 52 -175 78 c-96 43 -177 78 -180 78 -3 0 -84 -35 -180 -78z
m288 -58 l87 -38 -97 -3 c-54 -1 -142 -1 -195 0 l-97 3 95 42 c51 23 100 40
107 38 7 -3 52 -22 100 -42z"/>
<path d="M120 160 l0 -40 360 0 360 0 0 40 0 40 -360 0 -360 0 0 -40z"/>
</g>
</svg>
